<svg viewBox="0 0 945 97" fill="none" xmlns="http://www.w3.org/2000/svg">
<path d="M543.158 29.2V47.7H494.5V29.2H543.158Z" fill="currentColor"/>
<path d="M42.8779 71.0664C36.5941 71.0664 30.8339 70.2655 25.5974 68.6637C20.4225 67.0619 15.9252 64.8133 12.1056 61.9178C8.28604 58.9607 5.29814 55.4184 3.14192 51.2908C1.04731 47.1015 0 42.4195 0 37.2445C0 32.316 1.04731 27.788 3.14192 23.6604C5.29814 19.5327 8.28604 15.9904 12.1056 13.0333C15.9868 10.0146 20.5457 7.70435 25.7822 6.10259C31.0187 4.50083 36.7481 3.69995 42.9703 3.69995C49.1926 3.69995 54.8911 4.50083 60.0661 6.10259C65.241 7.70435 69.7382 9.98378 73.5578 12.9409C77.439 15.898 80.4269 19.4403 82.5215 23.568C84.6777 27.6956 85.7559 32.2236 85.7559 37.1521C85.7559 42.2654 84.6777 46.9167 82.5215 51.1059C80.4269 55.2336 77.4698 58.7759 73.6502 61.733C69.8307 64.6901 65.3026 67.0003 60.0661 68.6637C54.8911 70.2655 49.1618 71.0664 42.8779 71.0664ZM42.8779 52.03C46.7591 52.03 50.1167 51.4448 52.9505 50.2743C55.7844 49.0421 57.9715 47.3172 59.5116 45.0993C61.0518 42.8815 61.8218 40.294 61.8218 37.3369C61.8218 34.3182 61.0518 31.7308 59.5116 29.5746C57.9715 27.3567 55.7844 25.6626 52.9505 24.4921C50.1783 23.3215 46.8207 22.7363 42.8779 22.7363C38.9967 22.7363 35.6392 23.3523 32.8053 24.5845C29.9714 25.755 27.7844 27.4491 26.2442 29.667C24.7041 31.8848 23.934 34.4723 23.934 37.4294C23.934 40.3865 24.7041 42.9739 26.2442 45.1917C27.7844 47.348 29.9714 49.0421 32.8053 50.2743C35.6392 51.4448 38.9967 52.03 42.8779 52.03Z" fill="currentColor"/>
<path d="M92.8324 86.5911V19.6868H114.087V26.8947H112.7C113.933 24.184 116.089 22.1202 119.169 20.7033C122.311 19.2863 126.1 18.5778 130.535 18.5778C135.772 18.5778 140.269 19.656 144.027 21.8122C147.847 23.9068 150.742 26.9255 152.714 30.8683C154.747 34.7495 155.763 39.4008 155.763 44.8221C155.763 50.1818 154.747 54.8331 152.714 58.7759C150.742 62.7187 147.878 65.7682 144.12 67.9244C140.362 70.0191 135.834 71.0664 130.535 71.0664C126.161 71.0664 122.403 70.3271 119.261 68.8485C116.12 67.37 113.933 65.3062 112.7 62.6571H114.087V86.5911H92.8324ZM124.067 55.5416C127.517 55.5416 130.104 54.6175 131.829 52.7693C133.554 50.9211 134.417 48.2721 134.417 44.8221C134.417 41.3105 133.554 38.6615 131.829 36.8749C130.104 35.0267 127.517 34.1026 124.067 34.1026C120.74 34.1026 118.183 35.0267 116.397 36.8749C114.61 38.6615 113.717 41.3105 113.717 44.8221C113.717 48.3337 114.61 51.0135 116.397 52.8617C118.183 54.6483 120.74 55.5416 124.067 55.5416Z" fill="currentColor"/>
<path d="M196.365 71.0664C189.403 71.0664 183.335 70.0499 178.16 68.0168C173.047 65.9222 169.073 62.9343 166.239 59.0531C163.467 55.1103 162.081 50.3975 162.081 44.9145C162.081 39.8628 163.313 35.3655 165.777 31.4227C168.303 27.4799 171.845 24.3688 176.404 22.0894C180.963 19.7484 186.261 18.5778 192.299 18.5778C198.213 18.5778 203.265 19.7176 207.454 21.997C211.643 24.2148 214.847 27.3259 217.064 31.3303C219.282 35.3347 220.391 40.0168 220.391 45.3766V49.3502H179.916V39.0003H204.774L202.371 41.403C202.248 38.3843 201.447 36.1664 199.969 34.7495C198.49 33.3325 196.149 32.6241 192.946 32.6241C190.481 32.6241 188.479 32.9937 186.939 33.733C185.399 34.4107 184.259 35.5504 183.52 37.1521C182.781 38.6923 182.411 40.7253 182.411 43.2511V44.7297C182.411 47.0707 182.811 49.0421 183.612 50.6439C184.475 52.2457 185.953 53.4778 188.048 54.3403C190.204 55.2028 193.315 55.634 197.381 55.634C200.646 55.634 203.788 55.326 206.807 54.7099C209.887 54.0938 212.382 53.2314 214.292 52.1224L219.837 65.5218C217.434 67.1852 214.077 68.5405 209.764 69.5878C205.513 70.5735 201.047 71.0664 196.365 71.0664Z" fill="currentColor"/>
<path d="M227.837 69.9574V19.6868H248.629V27.8188H247.797C249.892 24.6769 252.602 22.3666 255.929 20.8881C259.317 19.3479 263.045 18.5778 267.111 18.5778C271.485 18.5778 275.15 19.4095 278.107 21.0729C281.126 22.6747 283.344 25.1697 284.761 28.5581C286.178 31.9464 286.886 36.2588 286.886 41.4954V69.9574H265.632V42.0498C265.632 40.14 265.355 38.6615 264.8 37.6142C264.246 36.5669 263.476 35.8276 262.49 35.3964C261.504 34.9035 260.303 34.6571 258.886 34.6571C256.976 34.6571 255.282 35.0883 253.804 35.9508C252.325 36.7517 251.155 37.8298 250.292 39.1851C249.491 40.4789 249.091 41.865 249.091 43.3436V69.9574H227.837Z" fill="currentColor"/>
<path d="M331.827 71.0664C324.496 71.0664 318.489 70.2963 313.807 68.7561C309.125 67.1544 305.552 65.0289 303.088 62.3799C300.624 59.7308 299.022 56.7121 298.283 53.3238C297.605 49.8738 297.543 46.3007 298.098 42.6043L304.104 4.80886H327.761L321.847 41.7726C321.292 45.0993 322.063 47.5636 324.157 49.1653C326.252 50.7055 329.486 51.4756 333.86 51.4756C339.097 51.4756 343.039 50.3359 345.689 48.0564C348.338 45.7154 349.939 42.6967 350.494 39.0003L355.946 4.80886H379.603L373.781 41.7726C372.734 48.6109 370.208 54.1862 366.203 58.4987C362.261 62.8111 357.301 65.9838 351.326 68.0168C345.411 70.0499 338.912 71.0664 331.827 71.0664Z" fill="currentColor"/>
<path d="M431.993 69.9574L442.343 4.80886H466L455.65 69.9574H431.993Z" fill="currentColor"/>
<path d="M364.203 96.6082L366.791 76.2966L372.714 76.1673C375.646 75.9948 378.19 75.4342 380.347 74.4854C382.589 73.5367 384.314 72.3292 385.522 70.863C386.815 69.3105 387.635 67.5424 387.98 65.5587L397.683 4.62396H423.04L413.337 65.8174C412.302 71.7686 409.844 77.0297 405.963 81.6009C402.168 86.1721 397.381 89.7514 391.602 92.3389C385.91 94.8401 379.743 96.2632 373.102 96.6082H364.203Z" fill="currentColor"/>
<path d="M597.6 72.9C592.667 72.9 587.9 72.7 583.3 72.3C578.767 71.9 574.7 71.3333 571.1 70.6C567.567 69.8 564.7 68.9333 562.5 68L571 48.8C573.2 49.7333 575.733 50.5667 578.6 51.3C581.467 52.0333 584.7 52.6 588.3 53C591.9 53.3333 595.867 53.5 600.2 53.5C603.2 53.5 605.7 53.4 607.7 53.2C609.7 52.9333 611.233 52.5 612.3 51.9C613.433 51.3 614.133 50.5 614.4 49.5C614.733 48.6333 614.633 48.0333 614.1 47.7C613.633 47.3667 612.8 47.1333 611.6 47C610.467 46.8 609 46.6333 607.2 46.5L590.2 45.3C580.667 44.4333 574.267 41.9 571 37.7C567.733 33.5 567.067 27.4 569 19.4C570.133 16 571.967 13.1 574.5 10.7C577.033 8.23333 580.133 6.23333 583.8 4.7C587.467 3.1 591.633 1.93333 596.3 1.2C601.033 0.399999 606.167 0 611.7 0C618.967 0 625.233 0.599998 630.5 1.79999C635.767 2.93333 639.3 4.3 641.1 5.9L633.3 24.9C630.5 23.0333 627.1 21.6667 623.1 20.8C619.1 19.8667 613.767 19.4 607.1 19.4C604.567 19.4 602.333 19.5333 600.4 19.8C598.533 20 597.033 20.3333 595.9 20.8C594.833 21.2667 594.167 21.9667 593.9 22.9C593.567 24.1 594.1 25 595.5 25.6C596.967 26.1333 599.267 26.5333 602.4 26.8L617.9 28.2C627.233 29.2 633.633 31.6333 637.1 35.5C640.633 39.3 641.4 45.1 639.4 52.9C638.2 56.1 636.433 58.9333 634.1 61.4C631.833 63.8667 628.933 65.9667 625.4 67.7C621.867 69.3667 617.8 70.6667 613.2 71.6C608.667 72.4667 603.467 72.9 597.6 72.9Z" fill="currentColor"/>
<path d="M645.758 89.7L657.558 15.4H679.558L677.958 26.3H676.158C677.358 23.4333 679.158 21.1333 681.558 19.4C683.958 17.6667 686.691 16.4 689.758 15.6C692.824 14.7333 696.058 14.3 699.458 14.3C707.924 14.3 714.458 16.1333 719.058 19.8C723.658 23.4667 726.391 28.4333 727.258 34.7C728.191 40.9667 727.358 47.9667 724.758 55.7C722.158 60.3667 719.258 63.9333 716.058 66.4C712.858 68.8 709.191 70.5 705.058 71.5C700.991 72.4333 696.291 72.9 690.958 72.9C686.158 72.9 682.391 72.0333 679.658 70.3C676.924 68.5667 675.291 66.6 674.758 64.4L674.658 64.2L670.458 89.7H645.758ZM686.758 55C689.024 55 690.991 54.9333 692.658 54.8C694.391 54.6 695.991 54.1667 697.458 53.5C698.924 52.8333 700.191 51.5667 701.258 49.7C702.991 43.4333 703.024 38.9667 701.358 36.3C699.758 33.5667 696.491 32.2 691.558 32.2C689.424 32.2 687.458 32.2333 685.658 32.3C683.924 32.3 682.358 32.6667 680.958 33.4C679.558 34.0667 678.258 35.3667 677.058 37.3C675.324 43.5 675.291 48 676.958 50.8C678.691 53.6 681.958 55 686.758 55Z" fill="currentColor"/>
<path d="M771.705 72.9C760.305 72.9 751.605 71.3333 745.605 68.2C739.605 65.0667 735.938 60.6667 734.605 55C733.271 49.2667 733.938 42.7 736.605 35.3C739.205 31.0333 742.205 27.3333 745.605 24.2C749.005 21.0667 753.238 18.6333 758.305 16.9C763.371 15.1667 769.571 14.3 776.905 14.3C781.771 14.3 786.571 15.2333 791.305 17.1C796.038 18.9 799.705 21.8667 802.305 26C804.971 30.1333 805.705 35.7 804.505 42.7L803.405 49.7H754.705L756.805 37.1H786.205L783.705 39.8C784.171 36.8 784.138 34.5667 783.605 33.1C783.071 31.6333 782.138 30.6333 780.805 30.1C779.471 29.5 777.738 29.2 775.605 29.2C772.738 29.2 770.171 29.6667 767.905 30.6C765.638 31.5333 763.738 33.0667 762.205 35.2C760.738 37.3333 759.671 40.2667 759.005 44L759.505 41.2C758.905 45 758.738 48.0333 759.005 50.3C759.338 52.5 760.738 54.1 763.205 55.1C765.671 56.0333 769.671 56.5 775.205 56.5C778.605 56.5 782.205 56.2 786.005 55.6C789.871 55 793.171 54.3 795.905 53.5L799.105 68.1C794.971 69.9667 790.305 71.2333 785.105 71.9C779.905 72.5667 775.438 72.9 771.705 72.9Z" fill="currentColor"/>
<path d="M903.145 72.9C896.545 72.9 891.145 72.5333 886.945 71.8C882.812 71.1333 879.679 70.2333 877.545 69.1L883.545 53.7C885.679 54.6333 888.179 55.3667 891.045 55.9C893.979 56.4333 896.945 56.8333 899.945 57.1C903.012 57.3 905.879 57.4 908.545 57.4C911.079 57.4 913.212 57.2667 914.945 57C916.745 56.7333 917.845 56.0333 918.245 54.9C918.645 53.9 918.512 53.1 917.845 52.5C917.245 51.8333 916.579 51.4667 915.845 51.4L895.145 49C889.079 48.2 885.179 46 883.445 42.4C881.779 38.7333 881.912 34.2667 883.845 29C885.445 25.2 888.045 22.2667 891.645 20.2C895.245 18.0667 899.445 16.5667 904.245 15.7C909.045 14.7667 913.979 14.3 919.045 14.3C923.845 14.3 927.945 14.5333 931.345 15C934.812 15.4 937.579 16 939.645 16.8C941.779 17.6 943.279 18.4333 944.145 19.3L935.845 34C933.845 32.9333 930.879 32 926.945 31.2C923.079 30.3333 919.179 29.9 915.245 29.9C911.845 29.9 909.412 30.1333 907.945 30.6C906.479 31.0667 905.512 31.6 905.045 32.2C904.779 33.0667 904.979 33.8 905.645 34.4C906.312 35 907.612 35.4333 909.545 35.7L929.245 38.3C934.512 39.1 938.045 41 939.845 44C941.712 46.9333 941.579 51.6667 939.445 58.2C937.779 61.2 935.079 63.8 931.345 66C927.679 68.2 923.412 69.9 918.545 71.1C913.745 72.3 908.612 72.9 903.145 72.9Z" fill="currentColor"/>
<path d="M839.9 73.2C832.7 73.2 826.633 71.5999 821.7 68.3999C816.833 65.1333 813.6 60.6999 812 55.0999C810.4 49.4333 810.933 42.9333 813.6 35.5999C815.667 30.1999 818.333 26.0333 821.6 23.0999C824.867 20.1666 828.433 18.1333 832.3 16.9999C836.167 15.7999 840 15.0999 843.8 14.8999C847.667 14.6999 851.233 14.6 854.5 14.6C859.233 14.6 863.7 15.2333 867.9 16.5C872.167 17.7 875.1 19.2666 876.7 21.1999L866.1 37.7999C861.4 34.4 859.5 34.2 854.5 33.4999C849.5 32.7999 844.1 33.4999 844.1 33.4999C844.1 33.4999 841.367 34.2999 840.1 35.2999C838.833 36.2333 837.833 37.7333 837.1 39.7999C835.5 45 835.667 48.6999 837.6 50.8999C839.533 53.0333 842.467 54.0999 846.4 54.0999C849.467 54.0999 852.567 53.7333 855.7 53C858.9 52.2666 861.967 51.2 864.9 49.7999L869.7 66.2C867.167 67.4666 864.4 68.6 861.4 69.6C858.4 70.6 855.133 71.4333 851.6 72.1C848.067 72.8333 844.167 73.2 839.9 73.2Z" fill="currentColor"/>
</svg>
