<svg width="466" height="93" viewBox="0 0 466 93" fill="none" xmlns="http://www.w3.org/2000/svg">
<path d="M42.8779 67.3664C36.5941 67.3664 30.8339 66.5655 25.5974 64.9638C20.4225 63.362 15.9252 61.1134 12.1056 58.2179C8.28604 55.2608 5.29814 51.7184 3.14192 47.5908C1.04731 43.4016 0 38.7195 0 33.5446C0 28.6161 1.04731 24.088 3.14192 19.9604C5.29814 15.8328 8.28604 12.2904 12.1056 9.33334C15.9868 6.31464 20.5457 4.0044 25.7822 2.40264C31.0187 0.80088 36.7481 0 42.9703 0C49.1926 0 54.8911 0.80088 60.0661 2.40264C65.241 4.0044 69.7382 6.28383 73.5578 9.24093C77.439 12.198 80.4269 15.7404 82.5215 19.868C84.6777 23.9956 85.7559 28.5237 85.7559 33.4522C85.7559 38.5655 84.6777 43.2168 82.5215 47.406C80.4269 51.5336 77.4698 55.076 73.6502 58.0331C69.8307 60.9902 65.3026 63.3004 60.0661 64.9638C54.8911 66.5655 49.1618 67.3664 42.8779 67.3664ZM42.8779 48.3301C46.7591 48.3301 50.1167 47.7448 52.9505 46.5743C55.7844 45.3422 57.9715 43.6172 59.5116 41.3994C61.0518 39.1816 61.8218 36.5941 61.8218 33.637C61.8218 30.6183 61.0518 28.0308 59.5116 25.8746C57.9715 23.6568 55.7844 21.9626 52.9505 20.7921C50.1783 19.6216 46.8207 19.0363 42.8779 19.0363C38.9967 19.0363 35.6392 19.6524 32.8053 20.8845C29.9714 22.055 27.7844 23.7492 26.2442 25.967C24.7041 28.1848 23.934 30.7723 23.934 33.7294C23.934 36.6865 24.7041 39.274 26.2442 41.4918C27.7844 43.648 29.9714 45.3422 32.8053 46.5743C35.6392 47.7448 38.9967 48.3301 42.8779 48.3301Z" fill="currentColor"/>
<path d="M92.8324 82.8912V15.9868H114.087V23.1947H112.7C113.933 20.4841 116.089 18.4203 119.169 17.0033C122.311 15.5864 126.1 14.8779 130.535 14.8779C135.772 14.8779 140.269 15.956 144.027 18.1122C147.847 20.2068 150.742 23.2255 152.714 27.1683C154.747 31.0495 155.763 35.7008 155.763 41.1222C155.763 46.4819 154.747 51.1332 152.714 55.076C150.742 59.0188 147.878 62.0683 144.12 64.2245C140.362 66.3191 135.834 67.3664 130.535 67.3664C126.161 67.3664 122.403 66.6271 119.261 65.1486C116.12 63.67 113.933 61.6062 112.7 58.9572H114.087V82.8912H92.8324ZM124.067 51.8416C127.517 51.8416 130.104 50.9175 131.829 49.0694C133.554 47.2212 134.417 44.5721 134.417 41.1222C134.417 37.6106 133.554 34.9615 131.829 33.1749C130.104 31.3268 127.517 30.4027 124.067 30.4027C120.74 30.4027 118.183 31.3268 116.397 33.1749C114.61 34.9615 113.717 37.6106 113.717 41.1222C113.717 44.6337 114.61 47.3136 116.397 49.1618C118.183 50.9483 120.74 51.8416 124.067 51.8416Z" fill="currentColor"/>
<path d="M196.365 67.3664C189.403 67.3664 183.335 66.3499 178.16 64.3169C173.047 62.2223 169.073 59.2344 166.239 55.3532C163.467 51.4104 162.081 46.6975 162.081 41.2146C162.081 36.1629 163.313 31.6656 165.777 27.7228C168.303 23.78 171.845 20.6689 176.404 18.3895C180.963 16.0484 186.261 14.8779 192.299 14.8779C198.213 14.8779 203.265 16.0176 207.454 18.297C211.643 20.5149 214.847 23.626 217.064 27.6304C219.282 31.6348 220.391 36.3169 220.391 41.6766V45.6502H179.916V35.3004H204.774L202.371 37.703C202.248 34.6843 201.447 32.4665 199.969 31.0495C198.49 29.6326 196.149 28.9241 192.946 28.9241C190.481 28.9241 188.479 29.2938 186.939 30.033C185.399 30.7107 184.259 31.8504 183.52 33.4522C182.781 34.9923 182.411 37.0253 182.411 39.5512V41.0297C182.411 43.3708 182.811 45.3422 183.612 46.9439C184.475 48.5457 185.953 49.7778 188.048 50.6403C190.204 51.5028 193.315 51.934 197.381 51.934C200.646 51.934 203.788 51.626 206.807 51.01C209.887 50.3939 212.382 49.5314 214.292 48.4225L219.837 61.8218C217.434 63.4852 214.077 64.8405 209.764 65.8879C205.513 66.8736 201.047 67.3664 196.365 67.3664Z" fill="currentColor"/>
<path d="M227.837 66.2575V15.9868H248.629V24.1188H247.797C249.892 20.9769 252.602 18.6667 255.929 17.1881C259.317 15.648 263.045 14.8779 267.111 14.8779C271.485 14.8779 275.15 15.7096 278.107 17.3729C281.126 18.9747 283.344 21.4698 284.761 24.8581C286.178 28.2465 286.886 32.5589 286.886 37.7954V66.2575H265.632V38.3499C265.632 36.4401 265.355 34.9615 264.8 33.9142C264.246 32.8669 263.476 32.1276 262.49 31.6964C261.504 31.2035 260.303 30.9571 258.886 30.9571C256.976 30.9571 255.282 31.3884 253.804 32.2509C252.325 33.0517 251.155 34.1298 250.292 35.4852C249.491 36.7789 249.091 38.1651 249.091 39.6436V66.2575H227.837Z" fill="currentColor"/>
<path d="M331.827 67.3664C324.496 67.3664 318.489 66.5963 313.807 65.0562C309.125 63.4544 305.552 61.329 303.088 58.6799C300.624 56.0309 299.022 53.0122 298.283 49.6238C297.605 46.1739 297.543 42.6007 298.098 38.9043L304.104 1.10891H327.761L321.847 38.0726C321.292 41.3994 322.063 43.8636 324.157 45.4654C326.252 47.0055 329.486 47.7756 333.86 47.7756C339.097 47.7756 343.039 46.6359 345.689 44.3565C348.338 42.0154 349.939 38.9967 350.494 35.3004L355.946 1.10891H379.603L373.781 38.0726C372.734 44.9109 370.208 50.4863 366.203 54.7987C362.261 59.1112 357.301 62.2839 351.326 64.3169C345.411 66.3499 338.912 67.3664 331.827 67.3664Z" fill="currentColor"/>
<path d="M431.993 66.2575L442.343 1.10891H466L455.65 66.2575H431.993Z" fill="currentColor"/>
<path d="M364.203 92.9083L366.791 72.5967L372.714 72.4673C375.646 72.2948 378.19 71.7342 380.347 70.7855C382.589 69.8367 384.314 68.6293 385.522 67.163C386.815 65.6105 387.635 63.8424 387.98 61.8587L397.683 0.924011H423.04L413.337 62.1175C412.302 68.0686 409.844 73.3298 405.963 77.901C402.168 82.4722 397.381 86.0515 391.602 88.6389C385.91 91.1402 379.743 92.5633 373.102 92.9083H364.203Z" fill="currentColor"/>
</svg>
